<svg xmlns="http://www.w3.org/2000/svg" width="567" height="567" viewBox="0 0 567 567" role="img" aria-label="The arcs of the circle of radius 9/10 held by the five outer squares of the model">
<title>The arcs of the circle of radius 9/10 held by the five outer squares of the model</title>
<defs><marker id="arrow" viewBox="0 0 10 10" refX="9" refY="5" markerUnits="userSpaceOnUse" markerWidth="11" markerHeight="11" orient="auto-start-reverse"><path d="M 0 0 L 10 5 L 0 10 z" fill="#1f2937"/></marker></defs>
<rect width="100%" height="100%" fill="#ffffff"/>
<circle cx="283.3" cy="283.3" r="253.3" fill="none" stroke="#1f2937" stroke-width="1.0" stroke-dasharray="6 4"/>
<polygon points="220.9,345.6 370.9,345.6 370.9,195.6 220.9,195.6" fill="#e5e7eb" stroke="#9ca3af" stroke-width="1.5" fill-opacity="1"/>
<text x="295.9" y="270.6" font-size="17" font-family="Georgia, 'Times New Roman', serif" fill="#9ca3af" text-anchor="middle" dominant-baseline="middle" font-style="italic">C</text>
<polygon points="220.9,195.6 370.9,195.6 370.9,45.6 220.9,45.6" fill="#ffedd5" stroke="#ea580c" stroke-width="1.5" fill-opacity="1"/>
<text x="295.9" y="120.6" font-size="17" font-family="Georgia, 'Times New Roman', serif" fill="#ea580c" text-anchor="middle" dominant-baseline="middle" font-style="italic">N</text>
<polygon points="370.9,345.6 520.9,345.6 520.9,195.6 370.9,195.6" fill="#dcfce7" stroke="#16a34a" stroke-width="1.5" fill-opacity="1"/>
<text x="445.9" y="270.6" font-size="17" font-family="Georgia, 'Times New Roman', serif" fill="#16a34a" text-anchor="middle" dominant-baseline="middle" font-style="italic">E</text>
<polygon points="70.9,295.2 220.9,295.2 220.9,145.2 70.9,145.2" fill="#f3e8ff" stroke="#9333ea" stroke-width="1.5" fill-opacity="1"/>
<text x="145.9" y="220.2" font-size="17" font-family="Georgia, 'Times New Roman', serif" fill="#9333ea" text-anchor="middle" dominant-baseline="middle" font-style="italic">W</text>
<polygon points="271.3,495.6 421.3,495.6 421.3,345.6 271.3,345.6" fill="#fce7f3" stroke="#db2777" stroke-width="1.5" fill-opacity="1"/>
<text x="346.3" y="420.6" font-size="17" font-family="Georgia, 'Times New Roman', serif" fill="#db2777" text-anchor="middle" dominant-baseline="middle" font-style="italic">S</text>
<polygon points="165.2,507.4 271.3,401.3 165.2,295.2 59.2,401.3" fill="#cffafe" stroke="#0891b2" stroke-width="1.5" fill-opacity="1"/>
<text x="165.2" y="401.3" font-size="17" font-family="Georgia, 'Times New Roman', serif" fill="#0891b2" text-anchor="middle" dominant-baseline="middle" font-style="italic">D</text>
<circle cx="283.3" cy="283.3" r="135.0" fill="none" stroke="#1f2937" stroke-width="1.0" stroke-dasharray="2 3"/>
<path d="M 403.0 345.6 A 135.0 135.0 0 0 0 386.0 195.6" fill="none" stroke="#16a34a" stroke-width="5" stroke-linecap="round"/>
<text x="387.6" y="271.4" font-size="12" font-family="Georgia, 'Times New Roman', serif" fill="#16a34a" text-anchor="middle" dominant-baseline="middle">68.0°</text>
<path d="M 370.9 180.6 A 135.0 135.0 0 0 0 220.9 163.6" fill="none" stroke="#ea580c" stroke-width="5" stroke-linecap="round"/>
<text x="295.1" y="179.0" font-size="12" font-family="Georgia, 'Times New Roman', serif" fill="#ea580c" text-anchor="middle" dominant-baseline="middle">68.0°</text>
<path d="M 220.9 163.6 A 135.0 135.0 0 0 0 148.8 295.3" fill="none" stroke="#9333ea" stroke-width="5" stroke-linecap="round"/>
<text x="191.2" y="232.9" font-size="12" font-family="Georgia, 'Times New Roman', serif" fill="#9333ea" text-anchor="middle" dominant-baseline="middle">67.6°</text>
<path d="M 150.9 309.6 A 135.0 135.0 0 0 0 256.9 415.7" fill="none" stroke="#0891b2" stroke-width="5" stroke-linecap="round"/>
<text x="209.0" y="357.5" font-size="12" font-family="Georgia, 'Times New Roman', serif" fill="#0891b2" text-anchor="middle" dominant-baseline="middle">67.5°</text>
<path d="M 271.3 417.8 A 135.0 135.0 0 0 0 403.0 345.6" fill="none" stroke="#db2777" stroke-width="5" stroke-linecap="round"/>
<text x="333.7" y="375.4" font-size="12" font-family="Georgia, 'Times New Roman', serif" fill="#db2777" text-anchor="middle" dominant-baseline="middle">67.6°</text>
<circle cx="283.3" cy="283.3" r="2.8" fill="#1f2937"/>
<text x="292.3" y="293.8" font-size="14" font-family="Georgia, 'Times New Roman', serif" fill="#1f2937" text-anchor="start" dominant-baseline="middle" font-style="italic">o</text>
</svg>
