<svg xmlns="http://www.w3.org/2000/svg" width="776" height="424" viewBox="0 0 776 424" role="img" aria-label="A square in a deep cap, and the depth of the deepest cap that holds a square at a given angle">
<title>A square in a deep cap, and the depth of the deepest cap that holds a square at a given angle</title>
<defs><marker id="arrow" viewBox="0 0 10 10" refX="9" refY="5" markerUnits="userSpaceOnUse" markerWidth="11" markerHeight="11" orient="auto-start-reverse"><path d="M 0 0 L 10 5 L 0 10 z" fill="#1f2937"/></marker></defs>
<rect width="100%" height="100%" fill="#ffffff"/>
<circle cx="212.2" cy="212.2" r="177.3" fill="none" stroke="#1f2937" stroke-width="1.0" stroke-dasharray="6 4"/>
<polygon points="389.5,212.2 389.5,207.6 389.3,203.0 389.0,198.3 388.6,193.7 388.0,189.1 387.4,184.5 386.6,179.9 385.7,175.4 384.6,170.9 383.5,166.4 382.2,161.9 380.9,157.5 379.4,153.1 377.8,148.7 376.1,144.4 374.2,140.1 372.3,135.9 370.2,131.8 368.1,127.7 365.8,123.6 363.4,119.6 360.9,115.7 358.4,111.8 355.7,108.0 352.9,104.3 350.0,100.7 347.1,97.1 344.0,93.6 340.9,90.2 337.6,86.9 334.3,83.6 330.9,80.5 327.4,77.4 323.8,74.5 320.2,71.6 316.5,68.8 312.7,66.1 308.8,63.6 304.9,61.1 300.9,58.7 296.8,56.4 292.7,54.3 288.6,52.2 284.4,50.3 280.1,48.4 275.8,46.7 271.4,45.1 267.0,43.6 262.6,42.3 259.5,41.4 259.5,383.1 262.6,382.2 267.0,380.9 271.4,379.4 275.8,377.8 280.1,376.1 284.4,374.2 288.6,372.3 292.7,370.2 296.8,368.1 300.9,365.8 304.9,363.4 308.8,360.9 312.7,358.4 316.5,355.7 320.2,352.9 323.8,350.0 327.4,347.1 330.9,344.0 334.3,340.9 337.6,337.6 340.9,334.3 344.0,330.9 347.1,327.4 350.0,323.8 352.9,320.2 355.7,316.5 358.4,312.7 360.9,308.8 363.4,304.9 365.8,300.9 368.1,296.8 370.2,292.7 372.3,288.6 374.2,284.4 376.1,280.1 377.8,275.8 379.4,271.4 380.9,267.0 382.2,262.6 383.5,258.1 384.6,253.6 385.7,249.1 386.6,244.6 387.4,240.0 388.0,235.4 388.6,230.8 389.0,226.2 389.3,221.5 389.5,216.9" fill="#fef3c7" stroke="none" stroke-width="1.5" fill-opacity="1"/>
<circle cx="212.2" cy="212.2" r="177.3" fill="none" stroke="#1f2937" stroke-width="1.0" stroke-dasharray="6 4"/>
<line x1="259.5" y1="401.3" x2="259.5" y2="23.3" stroke="#ea580c" stroke-width="1.4"/>
<polygon points="281.1,260.3 384.9,244.6 369.2,140.7 265.4,156.4" fill="#dcfce7" stroke="#16a34a" stroke-width="1.5" fill-opacity="1"/>
<circle cx="312.0" cy="212.2" r="4" fill="#dc2626"/>
<text x="314.1" y="230.1" font-size="13" font-family="Georgia, 'Times New Roman', serif" fill="#dc2626" text-anchor="start" dominant-baseline="middle">(<tspan font-style="italic">η</tspan> + ½, 0)</text>
<text x="252.2" y="75.8" font-size="14" font-family="Georgia, 'Times New Roman', serif" fill="#ea580c" text-anchor="end" dominant-baseline="middle"><tspan font-style="italic">x</tspan> = <tspan font-style="italic">η</tspan></text>
<circle cx="212.2" cy="212.2" r="2.8" fill="#1f2937"/>
<text x="218.6" y="219.6" font-size="14" font-family="Georgia, 'Times New Roman', serif" fill="#1f2937" text-anchor="start" dominant-baseline="middle" font-style="italic">o</text>
<line x1="459.0" y1="343.5" x2="726.4" y2="343.5" stroke="#1f2937" stroke-width="1"/>
<path d="M 732.0 343.5 L 724.0 346.9 L 724.0 340.1 z" fill="#1f2937"/>
<line x1="459.0" y1="343.5" x2="459.0" y2="60.4" stroke="#1f2937" stroke-width="1"/>
<path d="M 459.0 54.8 L 462.4 62.8 L 455.6 62.8 z" fill="#1f2937"/>
<text x="732.0" y="360.3" font-size="14" font-family="Georgia, 'Times New Roman', serif" fill="#1f2937" text-anchor="end" dominant-baseline="middle" font-style="italic"><tspan font-style="italic">t</tspan></text>
<text x="448.5" y="56.9" font-size="14" font-family="Georgia, 'Times New Roman', serif" fill="#1f2937" text-anchor="end" dominant-baseline="middle" font-style="italic"><tspan font-style="italic">η</tspan></text>
<line x1="519.2" y1="347.7" x2="519.2" y2="339.3" stroke="#1f2937" stroke-width="1"/>
<text x="519.2" y="361.4" font-size="12" font-family="Georgia, 'Times New Roman', serif" fill="#1f2937" text-anchor="middle" dominant-baseline="middle">0.203</text>
<line x1="577.7" y1="347.7" x2="577.7" y2="339.3" stroke="#1f2937" stroke-width="1"/>
<text x="577.7" y="361.4" font-size="12" font-family="Georgia, 'Times New Roman', serif" fill="#1f2937" text-anchor="middle" dominant-baseline="middle">⅖</text>
<line x1="692.1" y1="347.7" x2="692.1" y2="339.3" stroke="#1f2937" stroke-width="1"/>
<text x="692.1" y="361.4" font-size="12" font-family="Georgia, 'Times New Roman', serif" fill="#1f2937" text-anchor="middle" dominant-baseline="middle">π/4</text>
<line x1="454.8" y1="137.2" x2="463.2" y2="137.2" stroke="#1f2937" stroke-width="1"/>
<text x="448.5" y="137.2" font-size="13" font-family="Georgia, 'Times New Roman', serif" fill="#1f2937" text-anchor="end" dominant-baseline="middle">½</text>
<line x1="454.8" y1="183.8" x2="463.2" y2="183.8" stroke="#1f2937" stroke-width="1"/>
<text x="448.5" y="183.8" font-size="13" font-family="Georgia, 'Times New Roman', serif" fill="#1f2937" text-anchor="end" dominant-baseline="middle"><tspan font-style="italic">r</tspan><tspan dy="3.9" font-size="8.8">0</tspan></text>
<line x1="454.8" y1="90.7" x2="463.2" y2="90.7" stroke="#1f2937" stroke-width="1"/>
<text x="448.5" y="90.7" font-size="13" font-family="Georgia, 'Times New Roman', serif" fill="#1f2937" text-anchor="end" dominant-baseline="middle"><tspan font-style="italic">ρ</tspan><tspan dy="3.9" font-size="8.8">0</tspan><tspan dy="-3.9"> − ½</tspan></text>
<polyline points="459.0,90.7 460.0,91.4 460.9,92.1 461.9,92.7 462.9,93.4 463.9,94.1 464.8,94.8 465.8,95.5 466.8,96.2 467.7,96.9 468.7,97.6 469.7,98.3 470.7,99.0 471.6,99.7 472.6,100.4 473.6,101.1 474.5,101.9 475.5,102.6 476.5,103.3 477.5,104.0 478.4,104.7 479.4,105.5 480.4,106.2 481.3,106.9 482.3,107.7 483.3,108.4 484.2,109.2 485.2,109.9 486.2,110.6 487.2,111.4 488.1,112.1 489.1,112.9 490.1,113.7 491.0,114.4 492.0,115.2 493.0,115.9 494.0,116.7 494.9,117.5 495.9,118.2 496.9,119.0 497.8,119.8 498.8,120.6 499.8,121.4 500.8,122.1 501.7,122.9 502.7,123.7 503.7,124.5 504.6,125.3 505.6,126.1 506.6,126.9 507.6,127.7 508.5,128.5 509.5,129.3 510.5,130.1 511.4,130.9 512.4,131.7 513.4,132.5 514.4,133.3 515.3,134.2 516.3,135.0 517.3,135.8 518.2,136.6 519.2,137.5 520.2,138.3 521.1,139.1 522.1,140.0 523.1,140.8 524.1,141.6 525.0,142.5 526.0,143.3 527.0,144.2 527.9,145.0 528.9,145.8 529.9,146.7 530.9,147.5 531.8,148.4 532.8,149.3 533.8,150.1 534.7,151.0 535.7,151.8 536.7,152.7 537.7,153.6 538.6,154.4 539.6,155.3 540.6,156.2 541.5,157.1 542.5,157.9 543.5,158.8 544.5,159.7 545.4,160.6 546.4,161.5 547.4,162.4 548.3,163.2 549.3,164.1 550.3,165.0 551.3,165.9 552.2,166.8 553.2,167.6 554.2,168.5 555.1,169.3 556.1,170.2 557.1,171.0 558.0,171.9 559.0,172.7 560.0,173.5 561.0,174.3 561.9,175.1 562.9,176.0 563.9,176.8 564.8,177.5 565.8,178.3 566.8,179.1 567.8,179.9 568.7,180.7 569.7,181.4 570.7,182.2 571.6,183.0 572.6,183.7 573.6,184.5 574.6,185.2 575.5,185.9 576.5,186.7 577.5,187.4 578.4,188.1 579.4,188.8 580.4,189.5 581.4,190.2 582.3,190.9 583.3,191.6 584.3,192.3 585.2,192.9 586.2,193.6 587.2,194.3 588.2,194.9 589.1,195.6 590.1,196.2 591.1,196.9 592.0,197.5 593.0,198.1 594.0,198.8 595.0,199.4 595.9,200.0 596.9,200.6 597.9,201.2 598.8,201.8 599.8,202.4 600.8,203.0 601.7,203.5 602.7,204.1 603.7,204.7 604.7,205.2 605.6,205.8 606.6,206.3 607.6,206.9 608.5,207.4 609.5,207.9 610.5,208.4 611.5,209.0 612.4,209.5 613.4,210.0 614.4,210.5 615.3,211.0 616.3,211.4 617.3,211.9 618.3,212.4 619.2,212.9 620.2,213.3 621.2,213.8 622.1,214.2 623.1,214.7 624.1,215.1 625.1,215.5 626.0,216.0 627.0,216.4 628.0,216.8 628.9,217.2 629.9,217.6 630.9,218.0 631.9,218.4 632.8,218.8 633.8,219.1 634.8,219.5 635.7,219.9 636.7,220.2 637.7,220.6 638.6,220.9 639.6,221.3 640.6,221.6 641.6,221.9 642.5,222.2 643.5,222.5 644.5,222.9 645.4,223.2 646.4,223.5 647.4,223.7 648.4,224.0 649.3,224.3 650.3,224.6 651.3,224.8 652.2,225.1 653.2,225.3 654.2,225.6 655.2,225.8 656.1,226.1 657.1,226.3 658.1,226.5 659.0,226.7 660.0,226.9 661.0,227.1 662.0,227.3 662.9,227.5 663.9,227.7 664.9,227.9 665.8,228.1 666.8,228.2 667.8,228.4 668.8,228.5 669.7,228.7 670.7,228.8 671.7,229.0 672.6,229.1 673.6,229.2 674.6,229.3 675.6,229.4 676.5,229.5 677.5,229.6 678.5,229.7 679.4,229.8 680.4,229.9 681.4,230.0 682.3,230.0 683.3,230.1 684.3,230.1 685.3,230.2 686.2,230.2 687.2,230.3 688.2,230.3 689.1,230.3 690.1,230.3 691.1,230.3 692.1,230.3" fill="none" fill-opacity="1.0" stroke="#16a34a" stroke-width="1.8" stroke-linejoin="round" stroke-linecap="round"/>
<polyline points="459.0,137.2 692.1,137.2" fill="none" fill-opacity="1.0" stroke="#ea580c" stroke-width="1.0" stroke-linejoin="round" stroke-linecap="round" stroke-dasharray="4 3"/>
<circle cx="519.0" cy="137.2" r="3.4" fill="#ea580c"/>
<polyline points="459.0,183.8 692.1,183.8" fill="none" fill-opacity="1.0" stroke="#dc2626" stroke-width="1.0" stroke-linejoin="round" stroke-linecap="round" stroke-dasharray="4 3"/>
<circle cx="572.7" cy="183.8" r="3.4" fill="#dc2626"/>
</svg>
