<svg xmlns="http://www.w3.org/2000/svg" width="740" height="251" viewBox="0 0 740 251" role="img" aria-label="Three exterior squares in their charts with a circle of radius at most 1/2 about o. Left: the full cap from -A to A. Middle: the lower edge clips the cap, from -V to A. Right: with the near edge through o, the square holds a half circle">
<title>Three exterior squares in their charts with a circle of radius at most 1/2 about o. Left: the full cap from -A to A. Middle: the lower edge clips the cap, from -V to A. Right: with the near edge through o, the square holds a half circle</title>
<defs><marker id="arrow" viewBox="0 0 10 10" refX="9" refY="5" markerUnits="userSpaceOnUse" markerWidth="11" markerHeight="11" orient="auto-start-reverse"><path d="M 0 0 L 10 5 L 0 10 z" fill="#1f2937"/></marker></defs>
<rect width="100%" height="100%" fill="#ffffff"/>
<line x1="26.3" y1="147.8" x2="244.6" y2="147.8" stroke="#9ca3af" stroke-width="1"/>
<polygon points="120.7,195.0 238.7,195.0 238.7,77.0 120.7,77.0" fill="#dbeafe" stroke="#2563eb" stroke-width="1.5" fill-opacity="1"/>
<line x1="120.7" y1="225.7" x2="120.7" y2="59.3" stroke="#1f2937" stroke-width="1" stroke-dasharray="4 4"/>
<line x1="26.3" y1="195.0" x2="244.6" y2="195.0" stroke="#1f2937" stroke-width="1" stroke-dasharray="4 4"/>
<circle cx="91.2" cy="147.8" r="53.1" fill="none" stroke="#9ca3af" stroke-width="1.2"/>
<path d="M 120.7 192.0 A 53.1 53.1 0 0 0 120.7 103.6" fill="none" stroke="#ea580c" stroke-width="5" stroke-linecap="round"/>
<line x1="91.2" y1="147.8" x2="120.7" y2="192.0" stroke="#1f2937" stroke-width="1"/>
<circle cx="120.7" cy="192.0" r="3.2" fill="#1f2937"/>
<line x1="91.2" y1="147.8" x2="120.7" y2="103.6" stroke="#1f2937" stroke-width="1"/>
<circle cx="120.7" cy="103.6" r="3.2" fill="#1f2937"/>
<polyline points="106.5,147.8 106.5,147.6 106.5,147.5 106.5,147.3 106.5,147.1 106.5,147.0 106.5,146.8 106.5,146.6 106.4,146.5 106.4,146.3 106.4,146.1 106.4,146.0 106.4,145.8 106.3,145.6 106.3,145.5 106.3,145.3 106.3,145.1 106.2,145.0 106.2,144.8 106.2,144.6 106.1,144.5 106.1,144.3 106.1,144.2 106.0,144.0 106.0,143.8 105.9,143.7 105.9,143.5 105.8,143.3 105.8,143.2 105.7,143.0 105.7,142.9 105.6,142.7 105.6,142.6 105.5,142.4 105.5,142.2 105.4,142.1 105.3,141.9 105.3,141.8 105.2,141.6 105.1,141.5 105.1,141.3 105.0,141.2 104.9,141.0 104.8,140.9 104.8,140.7 104.7,140.6 104.6,140.4 104.5,140.3 104.4,140.1 104.4,140.0 104.3,139.8 104.2,139.7 104.1,139.6 104.0,139.4 103.9,139.3 103.8,139.1 103.7,139.0 103.6,138.9 103.5,138.7 103.4,138.6 103.3,138.5 103.2,138.3 103.1,138.2 103.0,138.1 102.9,137.9 102.8,137.8 102.7,137.7 102.6,137.6 102.5,137.4 102.4,137.3 102.2,137.2 102.1,137.1 102.0,137.0 101.9,136.8 101.8,136.7 101.6,136.6 101.5,136.5 101.4,136.4 101.3,136.3 101.1,136.2 101.0,136.0 100.9,135.9 100.8,135.8 100.6,135.7 100.5,135.6 100.4,135.5 100.2,135.4 100.1,135.3 100.0,135.2 99.8,135.1 99.7,135.0" fill="none" fill-opacity="1.0" stroke="#1f2937" stroke-width="1.2" stroke-linejoin="round" stroke-linecap="round"/>
<text x="113.0" y="136.1" font-size="13" font-family="Georgia, 'Times New Roman', serif" fill="#1f2937" text-anchor="middle" dominant-baseline="middle" font-style="italic">A<tspan dy="3.9" font-size="8.8">S</tspan></text>
<polyline points="102.3,164.5 102.5,164.4 102.7,164.2 102.8,164.1 103.0,164.0 103.2,163.8 103.4,163.7 103.5,163.6 103.7,163.4 103.9,163.3 104.1,163.2 104.2,163.0 104.4,162.9 104.5,162.7 104.7,162.6 104.9,162.4 105.0,162.3 105.2,162.1 105.3,162.0 105.5,161.8 105.7,161.7 105.8,161.5 105.9,161.4 106.1,161.2 106.2,161.0 106.4,160.9 106.5,160.7 106.7,160.5 106.8,160.4 106.9,160.2 107.1,160.0 107.2,159.8 107.3,159.7 107.5,159.5 107.6,159.3 107.7,159.1 107.8,158.9 108.0,158.8 108.1,158.6 108.2,158.4 108.3,158.2 108.4,158.0 108.5,157.8 108.6,157.6 108.7,157.4 108.9,157.3 109.0,157.1 109.1,156.9 109.2,156.7 109.2,156.5 109.3,156.3 109.4,156.1 109.5,155.9 109.6,155.7 109.7,155.5 109.8,155.3 109.9,155.1 109.9,154.9 110.0,154.7 110.1,154.5 110.2,154.2 110.2,154.0 110.3,153.8 110.4,153.6 110.4,153.4 110.5,153.2 110.5,153.0 110.6,152.8 110.6,152.6 110.7,152.4 110.7,152.1 110.8,151.9 110.8,151.7 110.9,151.5 110.9,151.3 111.0,151.1 111.0,150.9 111.0,150.6 111.0,150.4 111.1,150.2 111.1,150.0 111.1,149.8 111.1,149.5 111.2,149.3 111.2,149.1 111.2,148.9 111.2,148.7 111.2,148.5 111.2,148.2 111.2,148.0 111.2,147.8" fill="none" fill-opacity="1.0" stroke="#1f2937" stroke-width="1.2" stroke-linejoin="round" stroke-linecap="round"/>
<text x="119.3" y="162.8" font-size="13" font-family="Georgia, 'Times New Roman', serif" fill="#1f2937" text-anchor="middle" dominant-baseline="middle" font-style="italic">A<tspan dy="3.9" font-size="8.8">S</tspan></text>
<circle cx="91.2" cy="147.8" r="3.2" fill="#1f2937"/>
<text x="85.3" y="138.4" font-size="14" font-family="Georgia, 'Times New Roman', serif" fill="#1f2937" text-anchor="end" dominant-baseline="middle" font-style="italic">o</text>
<circle cx="179.7" cy="136.0" r="3.2" fill="#2563eb"/>
<text x="132.5" y="27.4" font-size="13" font-family="Georgia, 'Times New Roman', serif" fill="#1f2937" text-anchor="middle" dominant-baseline="middle"><tspan font-style="italic">A<tspan dy="3.9" font-size="8.8">S</tspan><tspan dy="-3.9"> ≤ </tspan></tspan><tspan font-style="italic">V<tspan dy="3.9" font-size="8.8">S</tspan><tspan dy="-3.9">:</tspan></tspan> the full cap</text>
<line x1="262.3" y1="147.8" x2="480.6" y2="147.8" stroke="#9ca3af" stroke-width="1"/>
<polygon points="350.8,165.5 468.8,165.5 468.8,47.5 350.8,47.5" fill="#dbeafe" stroke="#2563eb" stroke-width="1.5" fill-opacity="1"/>
<line x1="350.8" y1="225.7" x2="350.8" y2="59.3" stroke="#1f2937" stroke-width="1" stroke-dasharray="4 4"/>
<line x1="262.3" y1="165.5" x2="480.6" y2="165.5" stroke="#1f2937" stroke-width="1" stroke-dasharray="4 4"/>
<circle cx="327.2" cy="147.8" r="53.1" fill="none" stroke="#9ca3af" stroke-width="1.2"/>
<path d="M 377.2 165.5 A 53.1 53.1 0 0 0 350.8 100.2" fill="none" stroke="#ea580c" stroke-width="5" stroke-linecap="round"/>
<line x1="327.2" y1="147.8" x2="377.2" y2="165.5" stroke="#1f2937" stroke-width="1"/>
<circle cx="377.2" cy="165.5" r="3.2" fill="#1f2937"/>
<line x1="327.2" y1="147.8" x2="350.8" y2="100.2" stroke="#1f2937" stroke-width="1"/>
<circle cx="350.8" cy="100.2" r="3.2" fill="#1f2937"/>
<polyline points="342.5,147.8 342.5,147.6 342.5,147.4 342.5,147.2 342.5,147.0 342.5,146.9 342.5,146.7 342.4,146.5 342.4,146.3 342.4,146.1 342.4,145.9 342.4,145.7 342.3,145.5 342.3,145.4 342.3,145.2 342.2,145.0 342.2,144.8 342.2,144.6 342.1,144.4 342.1,144.2 342.0,144.1 342.0,143.9 341.9,143.7 341.9,143.5 341.8,143.3 341.8,143.1 341.7,143.0 341.7,142.8 341.6,142.6 341.5,142.4 341.5,142.3 341.4,142.1 341.3,141.9 341.2,141.7 341.2,141.6 341.1,141.4 341.0,141.2 340.9,141.0 340.8,140.9 340.8,140.7 340.7,140.5 340.6,140.4 340.5,140.2 340.4,140.0 340.3,139.9 340.2,139.7 340.1,139.6 340.0,139.4 339.9,139.2 339.8,139.1 339.7,138.9 339.6,138.8 339.5,138.6 339.3,138.5 339.2,138.3 339.1,138.2 339.0,138.0 338.9,137.9 338.7,137.7 338.6,137.6 338.5,137.5 338.4,137.3 338.2,137.2 338.1,137.0 338.0,136.9 337.8,136.8 337.7,136.6 337.6,136.5 337.4,136.4 337.3,136.3 337.1,136.1 337.0,136.0 336.8,135.9 336.7,135.8 336.5,135.7 336.4,135.5 336.2,135.4 336.1,135.3 335.9,135.2 335.8,135.1 335.6,135.0 335.5,134.9 335.3,134.8 335.1,134.7 335.0,134.6 334.8,134.5 334.6,134.4 334.5,134.3 334.3,134.2 334.1,134.1 334.0,134.1" fill="none" fill-opacity="1.0" stroke="#1f2937" stroke-width="1.2" stroke-linejoin="round" stroke-linecap="round"/>
<text x="348.2" y="134.7" font-size="13" font-family="Georgia, 'Times New Roman', serif" fill="#1f2937" text-anchor="middle" dominant-baseline="middle" font-style="italic">A<tspan dy="3.9" font-size="8.8">S</tspan></text>
<polyline points="346.1,154.5 346.1,154.4 346.1,154.3 346.1,154.3 346.2,154.2 346.2,154.1 346.2,154.1 346.2,154.0 346.3,153.9 346.3,153.8 346.3,153.8 346.3,153.7 346.4,153.6 346.4,153.6 346.4,153.5 346.4,153.4 346.4,153.3 346.5,153.3 346.5,153.2 346.5,153.1 346.5,153.0 346.5,153.0 346.6,152.9 346.6,152.8 346.6,152.7 346.6,152.7 346.6,152.6 346.7,152.5 346.7,152.5 346.7,152.4 346.7,152.3 346.7,152.2 346.7,152.2 346.8,152.1 346.8,152.0 346.8,151.9 346.8,151.9 346.8,151.8 346.8,151.7 346.8,151.6 346.9,151.6 346.9,151.5 346.9,151.4 346.9,151.3 346.9,151.3 346.9,151.2 346.9,151.1 347.0,151.0 347.0,151.0 347.0,150.9 347.0,150.8 347.0,150.7 347.0,150.7 347.0,150.6 347.0,150.5 347.0,150.4 347.1,150.4 347.1,150.3 347.1,150.2 347.1,150.1 347.1,150.1 347.1,150.0 347.1,149.9 347.1,149.8 347.1,149.8 347.1,149.7 347.1,149.6 347.1,149.5 347.2,149.5 347.2,149.4 347.2,149.3 347.2,149.2 347.2,149.2 347.2,149.1 347.2,149.0 347.2,148.9 347.2,148.9 347.2,148.8 347.2,148.7 347.2,148.6 347.2,148.6 347.2,148.5 347.2,148.4 347.2,148.3 347.2,148.3 347.2,148.2 347.2,148.1 347.2,148.0 347.2,148.0 347.2,147.9 347.2,147.8" fill="none" fill-opacity="1.0" stroke="#1f2937" stroke-width="1.2" stroke-linejoin="round" stroke-linecap="round"/>
<text x="358.6" y="153.2" font-size="13" font-family="Georgia, 'Times New Roman', serif" fill="#1f2937" text-anchor="middle" dominant-baseline="middle" font-style="italic">V<tspan dy="3.9" font-size="8.8">S</tspan></text>
<circle cx="327.2" cy="147.8" r="3.2" fill="#1f2937"/>
<text x="321.3" y="138.4" font-size="14" font-family="Georgia, 'Times New Roman', serif" fill="#1f2937" text-anchor="end" dominant-baseline="middle" font-style="italic">o</text>
<circle cx="409.8" cy="106.5" r="3.2" fill="#2563eb"/>
<text x="368.5" y="27.4" font-size="13" font-family="Georgia, 'Times New Roman', serif" fill="#1f2937" text-anchor="middle" dominant-baseline="middle"><tspan font-style="italic">V<tspan dy="3.9" font-size="8.8">S</tspan><tspan dy="-3.9"> &lt; </tspan></tspan><tspan font-style="italic">A<tspan dy="3.9" font-size="8.8">S</tspan><tspan dy="-3.9">:</tspan></tspan> the lower edge clips it</text>
<line x1="498.3" y1="147.8" x2="716.6" y2="147.8" stroke="#9ca3af" stroke-width="1"/>
<polygon points="563.2,189.1 681.2,189.1 681.2,71.1 563.2,71.1" fill="#dbeafe" stroke="#2563eb" stroke-width="1.5" fill-opacity="1"/>
<line x1="563.2" y1="225.7" x2="563.2" y2="59.3" stroke="#1f2937" stroke-width="1" stroke-dasharray="4 4"/>
<line x1="498.3" y1="189.1" x2="716.6" y2="189.1" stroke="#1f2937" stroke-width="1" stroke-dasharray="4 4"/>
<circle cx="563.2" cy="147.8" r="35.4" fill="none" stroke="#9ca3af" stroke-width="1.2"/>
<path d="M 563.2 183.2 A 35.4 35.4 0 0 0 563.2 112.4" fill="none" stroke="#ea580c" stroke-width="5" stroke-linecap="round"/>
<line x1="563.2" y1="147.8" x2="563.2" y2="183.2" stroke="#1f2937" stroke-width="1"/>
<circle cx="563.2" cy="183.2" r="3.2" fill="#1f2937"/>
<line x1="563.2" y1="147.8" x2="563.2" y2="112.4" stroke="#1f2937" stroke-width="1"/>
<circle cx="563.2" cy="112.4" r="3.2" fill="#1f2937"/>
<circle cx="563.2" cy="147.8" r="3.2" fill="#1f2937"/>
<text x="557.3" y="138.4" font-size="14" font-family="Georgia, 'Times New Roman', serif" fill="#1f2937" text-anchor="end" dominant-baseline="middle" font-style="italic">o</text>
<circle cx="622.2" cy="130.1" r="3.2" fill="#2563eb"/>
<text x="604.5" y="27.4" font-size="13" font-family="Georgia, 'Times New Roman', serif" fill="#1f2937" text-anchor="middle" dominant-baseline="middle"><tspan font-style="italic">a<tspan dy="3.9" font-size="8.8">S</tspan><tspan dy="-3.9"> = ½:</tspan></tspan> a half circle</text>
</svg>
