<svg xmlns="http://www.w3.org/2000/svg" width="766" height="320" viewBox="0 0 766 320" role="img" aria-label="The radial form at z = 5/8 as a square plus an affine function of B that is positive at B = 0 and B = 3/10; the two heights on [0, 5/8], the one at B = 3/10 concave and above its chord">
<title>The radial form at z = 5/8 as a square plus an affine function of B that is positive at B = 0 and B = 3/10; the two heights on [0, 5/8], the one at B = 3/10 concave and above its chord</title>
<defs><marker id="arrow" viewBox="0 0 10 10" refX="9" refY="5" markerUnits="userSpaceOnUse" markerWidth="11" markerHeight="11" orient="auto-start-reverse"><path d="M 0 0 L 10 5 L 0 10 z" fill="#1f2937"/></marker></defs>
<rect width="100%" height="100%" fill="#ffffff"/>
<line x1="58.0" y1="276.0" x2="358.0" y2="276.0" stroke="#1f2937" stroke-width="1"/>
<line x1="58.0" y1="276.0" x2="58.0" y2="46.0" stroke="#1f2937" stroke-width="1"/>
<line x1="58.0" y1="276.0" x2="58.0" y2="281.0" stroke="#1f2937" stroke-width="1"/>
<text x="58.0" y="292.0" font-size="13" font-family="Georgia, 'Times New Roman', serif" fill="#1f2937" text-anchor="middle" dominant-baseline="middle">0</text>
<line x1="141.3" y1="276.0" x2="141.3" y2="281.0" stroke="#1f2937" stroke-width="1"/>
<text x="141.3" y="292.0" font-size="13" font-family="Georgia, 'Times New Roman', serif" fill="#1f2937" text-anchor="middle" dominant-baseline="middle">0.1</text>
<line x1="224.7" y1="276.0" x2="224.7" y2="281.0" stroke="#1f2937" stroke-width="1"/>
<text x="224.7" y="292.0" font-size="13" font-family="Georgia, 'Times New Roman', serif" fill="#1f2937" text-anchor="middle" dominant-baseline="middle">0.2</text>
<line x1="308.0" y1="276.0" x2="308.0" y2="281.0" stroke="#1f2937" stroke-width="1"/>
<text x="308.0" y="292.0" font-size="13" font-family="Georgia, 'Times New Roman', serif" fill="#1f2937" text-anchor="middle" dominant-baseline="middle">3/10</text>
<line x1="58.0" y1="276.0" x2="53.0" y2="276.0" stroke="#1f2937" stroke-width="1"/>
<text x="50.0" y="276.0" font-size="13" font-family="Georgia, 'Times New Roman', serif" fill="#1f2937" text-anchor="end" dominant-baseline="middle">0</text>
<line x1="58.0" y1="218.5" x2="53.0" y2="218.5" stroke="#1f2937" stroke-width="1"/>
<text x="50.0" y="218.5" font-size="13" font-family="Georgia, 'Times New Roman', serif" fill="#1f2937" text-anchor="end" dominant-baseline="middle">0.02</text>
<line x1="58.0" y1="161.0" x2="53.0" y2="161.0" stroke="#1f2937" stroke-width="1"/>
<text x="50.0" y="161.0" font-size="13" font-family="Georgia, 'Times New Roman', serif" fill="#1f2937" text-anchor="end" dominant-baseline="middle">0.04</text>
<line x1="58.0" y1="103.5" x2="53.0" y2="103.5" stroke="#1f2937" stroke-width="1"/>
<text x="50.0" y="103.5" font-size="13" font-family="Georgia, 'Times New Roman', serif" fill="#1f2937" text-anchor="end" dominant-baseline="middle">0.06</text>
<line x1="58.0" y1="46.0" x2="53.0" y2="46.0" stroke="#1f2937" stroke-width="1"/>
<text x="50.0" y="46.0" font-size="13" font-family="Georgia, 'Times New Roman', serif" fill="#1f2937" text-anchor="end" dominant-baseline="middle">0.08</text>
<text x="362.0" y="306.0" font-size="15" font-family="Georgia, 'Times New Roman', serif" fill="#1f2937" text-anchor="end" dominant-baseline="middle" font-style="italic">B</text>
<line x1="308.0" y1="276.0" x2="308.0" y2="46.0" stroke="#9ca3af" stroke-width="1" stroke-dasharray="4 3"/>
<polyline points="58.0,119.4 58.8,120.3 59.5,121.2 60.2,122.1 61.0,123.0 61.8,123.9 62.5,124.7 63.2,125.6 64.0,126.5 64.8,127.4 65.5,128.3 66.2,129.1 67.0,130.0 67.8,130.9 68.5,131.8 69.2,132.6 70.0,133.5 70.8,134.3 71.5,135.2 72.2,136.1 73.0,136.9 73.8,137.8 74.5,138.6 75.2,139.4 76.0,140.3 76.8,141.1 77.5,142.0 78.2,142.8 79.0,143.6 79.8,144.4 80.5,145.3 81.2,146.1 82.0,146.9 82.8,147.7 83.5,148.5 84.2,149.4 85.0,150.2 85.8,151.0 86.5,151.8 87.2,152.6 88.0,153.4 88.8,154.2 89.5,155.0 90.2,155.8 91.0,156.6 91.8,157.3 92.5,158.1 93.2,158.9 94.0,159.7 94.8,160.5 95.5,161.2 96.2,162.0 97.0,162.8 97.8,163.5 98.5,164.3 99.2,165.1 100.0,165.8 100.8,166.6 101.5,167.3 102.2,168.1 103.0,168.8 103.8,169.6 104.5,170.3 105.2,171.1 106.0,171.8 106.8,172.5 107.5,173.3 108.2,174.0 109.0,174.7 109.8,175.4 110.5,176.2 111.2,176.9 112.0,177.6 112.8,178.3 113.5,179.0 114.2,179.7 115.0,180.4 115.8,181.1 116.5,181.8 117.2,182.5 118.0,183.2 118.8,183.9 119.5,184.6 120.2,185.3 121.0,186.0 121.8,186.7 122.5,187.4 123.2,188.0 124.0,188.7 124.8,189.4 125.5,190.0 126.2,190.7 127.0,191.4 127.8,192.0 128.5,192.7 129.2,193.4 130.0,194.0 130.8,194.7 131.5,195.3 132.2,196.0 133.0,196.6 133.8,197.2 134.5,197.9 135.2,198.5 136.0,199.2 136.8,199.8 137.5,200.4 138.2,201.0 139.0,201.7 139.8,202.3 140.5,202.9 141.2,203.5 142.0,204.1 142.8,204.7 143.5,205.3 144.2,205.9 145.0,206.5 145.8,207.1 146.5,207.7 147.2,208.3 148.0,208.9 148.8,209.5 149.5,210.1 150.2,210.7 151.0,211.3 151.8,211.8 152.5,212.4 153.2,213.0 154.0,213.6 154.8,214.1 155.5,214.7 156.2,215.3 157.0,215.8 157.8,216.4 158.5,216.9 159.2,217.5 160.0,218.0 160.8,218.6 161.5,219.1 162.2,219.7 163.0,220.2 163.8,220.8 164.5,221.3 165.2,221.8 166.0,222.3 166.8,222.9 167.5,223.4 168.2,223.9 169.0,224.4 169.8,225.0 170.5,225.5 171.2,226.0 172.0,226.5 172.8,227.0 173.5,227.5 174.2,228.0 175.0,228.5 175.8,229.0 176.5,229.5 177.2,230.0 178.0,230.5 178.8,230.9 179.5,231.4 180.2,231.9 181.0,232.4 181.8,232.9 182.5,233.3 183.2,233.8 184.0,234.3 184.8,234.7 185.5,235.2 186.2,235.7 187.0,236.1 187.8,236.6 188.5,237.0 189.2,237.5 190.0,237.9 190.8,238.4 191.5,238.8 192.2,239.2 193.0,239.7 193.8,240.1 194.5,240.5 195.2,241.0 196.0,241.4 196.8,241.8 197.5,242.2 198.2,242.7 199.0,243.1 199.7,243.5 200.5,243.9 201.2,244.3 202.0,244.7 202.8,245.1 203.5,245.5 204.3,245.9 205.0,246.3 205.8,246.7 206.5,247.1 207.3,247.5 208.0,247.8 208.8,248.2 209.5,248.6 210.2,249.0 211.0,249.4 211.8,249.7 212.5,250.1 213.2,250.5 214.0,250.8 214.8,251.2 215.5,251.5 216.2,251.9 217.0,252.2 217.8,252.6 218.5,252.9 219.2,253.3 220.0,253.6 220.7,254.0 221.5,254.3 222.2,254.6 223.0,255.0 223.8,255.3 224.5,255.6 225.2,256.0 226.0,256.3 226.8,256.6 227.5,256.9 228.3,257.2 229.0,257.5 229.8,257.8 230.5,258.1 231.2,258.5 232.0,258.8 232.8,259.1 233.5,259.3 234.2,259.6 235.0,259.9 235.8,260.2 236.5,260.5 237.2,260.8 238.0,261.1 238.8,261.3 239.5,261.6 240.2,261.9 241.0,262.2 241.8,262.4 242.5,262.7 243.2,263.0 244.0,263.2 244.8,263.5 245.5,263.7 246.2,264.0 247.0,264.2 247.8,264.5 248.5,264.7 249.2,265.0 250.0,265.2 250.8,265.4 251.5,265.7 252.2,265.9 253.0,266.1 253.8,266.3 254.5,266.6 255.2,266.8 256.0,267.0 256.8,267.2 257.5,267.4 258.2,267.6 259.0,267.8 259.8,268.1 260.5,268.3 261.2,268.5 262.0,268.6 262.8,268.8 263.5,269.0 264.2,269.2 265.0,269.4 265.8,269.6 266.5,269.8 267.2,270.0 268.0,270.1 268.8,270.3 269.5,270.5 270.2,270.6 271.0,270.8 271.8,271.0 272.5,271.1 273.2,271.3 274.0,271.4 274.8,271.6 275.5,271.7 276.2,271.9 277.0,272.0 277.8,272.2 278.5,272.3 279.2,272.5 280.0,272.6 280.8,272.7 281.5,272.9 282.2,273.0 283.0,273.1 283.8,273.2 284.5,273.3 285.2,273.5 286.0,273.6 286.8,273.7 287.5,273.8 288.2,273.9 289.0,274.0 289.8,274.1 290.5,274.2 291.2,274.3 292.0,274.4 292.8,274.5 293.5,274.6 294.2,274.7 295.0,274.7 295.8,274.8 296.5,274.9 297.2,275.0 298.0,275.0 298.8,275.1 299.5,275.2 300.2,275.2 301.0,275.3 301.8,275.4 302.5,275.4 303.2,275.5 304.0,275.5 304.8,275.6 305.5,275.6 306.2,275.7 307.0,275.7 307.8,275.7 308.5,275.8 309.2,275.8 310.0,275.8 310.8,275.9 311.5,275.9 312.2,275.9 313.0,275.9 313.8,275.9 314.5,276.0 315.2,276.0 316.0,276.0 316.8,276.0 317.5,276.0 318.3,276.0 319.0,276.0 319.8,276.0 320.5,276.0 321.2,276.0 322.0,276.0 322.8,276.0 323.5,275.9 324.2,275.9 325.0,275.9 325.8,275.9 326.5,275.8 327.2,275.8 328.0,275.8 328.8,275.8 329.5,275.7 330.2,275.7 331.0,275.6 331.8,275.6 332.5,275.5 333.3,275.5 334.0,275.4 334.8,275.4 335.5,275.3 336.3,275.3 337.0,275.2 337.8,275.1 338.5,275.1 339.3,275.0 340.0,274.9 340.8,274.8 341.5,274.8 342.2,274.7 343.0,274.6 343.8,274.5 344.5,274.4 345.2,274.3 346.0,274.2 346.8,274.1 347.5,274.0 348.2,273.9 349.0,273.8 349.8,273.7 350.5,273.6 351.2,273.5 352.0,273.4 352.8,273.3 353.5,273.2 354.2,273.0 355.0,272.9 355.8,272.8 356.5,272.7 357.2,272.5 358.0,272.4" fill="none" stroke="#ea580c" stroke-width="2.2" stroke-linejoin="round"/>
<polyline points="58.0,228.8 58.6,228.9 59.2,229.0 59.9,229.1 60.5,229.2 61.1,229.3 61.8,229.4 62.4,229.5 63.0,229.6 63.6,229.7 64.2,229.8 64.9,229.9 65.5,230.0 66.1,230.1 66.8,230.2 67.4,230.3 68.0,230.4 68.6,230.5 69.2,230.6 69.9,230.7 70.5,230.8 71.1,230.9 71.8,231.0 72.4,231.1 73.0,231.2 73.6,231.3 74.2,231.4 74.9,231.5 75.5,231.6 76.1,231.7 76.8,231.8 77.4,231.9 78.0,232.0 78.6,232.1 79.2,232.2 79.9,232.3 80.5,232.4 81.1,232.5 81.8,232.6 82.4,232.7 83.0,232.8 83.6,232.9 84.2,233.0 84.9,233.1 85.5,233.2 86.1,233.3 86.8,233.4 87.4,233.5 88.0,233.6 88.6,233.7 89.2,233.8 89.9,233.9 90.5,234.0 91.1,234.1 91.8,234.2 92.4,234.3 93.0,234.4 93.6,234.5 94.2,234.6 94.9,234.7 95.5,234.8 96.1,234.9 96.8,235.0 97.4,235.1 98.0,235.2 98.6,235.3 99.2,235.4 99.9,235.5 100.5,235.6 101.1,235.7 101.8,235.8 102.4,235.9 103.0,236.0 103.6,236.1 104.2,236.2 104.9,236.3 105.5,236.4 106.1,236.5 106.8,236.6 107.4,236.7 108.0,236.8 108.6,236.9 109.2,237.0 109.9,237.1 110.5,237.2 111.1,237.3 111.8,237.4 112.4,237.5 113.0,237.6 113.6,237.7 114.2,237.8 114.9,237.9 115.5,238.0 116.1,238.1 116.8,238.2 117.4,238.3 118.0,238.4 118.6,238.5 119.2,238.6 119.9,238.7 120.5,238.8 121.1,238.9 121.8,239.0 122.4,239.1 123.0,239.2 123.6,239.3 124.2,239.4 124.9,239.5 125.5,239.6 126.1,239.7 126.8,239.8 127.4,239.9 128.0,240.0 128.6,240.1 129.2,240.2 129.9,240.3 130.5,240.4 131.1,240.5 131.8,240.6 132.4,240.7 133.0,240.8 133.6,240.9 134.2,241.0 134.9,241.1 135.5,241.2 136.1,241.3 136.8,241.4 137.4,241.5 138.0,241.6 138.6,241.7 139.2,241.8 139.9,241.9 140.5,242.0 141.1,242.1 141.8,242.2 142.4,242.3 143.0,242.4 143.6,242.5 144.2,242.6 144.9,242.7 145.5,242.8 146.1,242.9 146.8,243.0 147.4,243.1 148.0,243.2 148.6,243.3 149.2,243.4 149.9,243.5 150.5,243.6 151.1,243.7 151.8,243.8 152.4,243.9 153.0,244.0 153.6,244.1 154.2,244.2 154.9,244.3 155.5,244.4 156.1,244.5 156.8,244.6 157.4,244.7 158.0,244.8 158.6,244.9 159.2,245.0 159.9,245.1 160.5,245.2 161.1,245.3 161.8,245.4 162.4,245.5 163.0,245.6 163.6,245.7 164.2,245.8 164.9,245.9 165.5,246.0 166.1,246.1 166.8,246.2 167.4,246.3 168.0,246.4 168.6,246.5 169.2,246.6 169.9,246.7 170.5,246.8 171.1,246.9 171.8,247.0 172.4,247.1 173.0,247.2 173.6,247.3 174.2,247.4 174.9,247.5 175.5,247.6 176.1,247.7 176.8,247.8 177.4,247.9 178.0,248.0 178.6,248.1 179.2,248.2 179.9,248.3 180.5,248.4 181.1,248.5 181.8,248.6 182.4,248.7 183.0,248.8 183.6,248.9 184.2,249.0 184.9,249.1 185.5,249.2 186.1,249.3 186.8,249.4 187.4,249.5 188.0,249.6 188.6,249.7 189.2,249.8 189.9,249.9 190.5,250.0 191.1,250.1 191.8,250.2 192.4,250.3 193.0,250.4 193.6,250.5 194.2,250.6 194.9,250.7 195.5,250.8 196.1,250.9 196.8,251.0 197.4,251.1 198.0,251.2 198.6,251.3 199.2,251.4 199.9,251.5 200.5,251.6 201.1,251.7 201.8,251.8 202.4,251.9 203.0,252.0 203.6,252.1 204.3,252.2 204.9,252.3 205.5,252.4 206.1,252.5 206.8,252.6 207.4,252.7 208.0,252.8 208.6,252.9 209.2,253.0 209.9,253.1 210.5,253.2 211.1,253.3 211.8,253.4 212.4,253.5 213.0,253.6 213.6,253.7 214.2,253.8 214.9,253.9 215.5,254.0 216.1,254.1 216.8,254.2 217.4,254.3 218.0,254.4 218.6,254.5 219.2,254.6 219.9,254.7 220.5,254.8 221.1,254.9 221.8,255.0 222.4,255.1 223.0,255.2 223.6,255.3 224.2,255.4 224.9,255.5 225.5,255.6 226.1,255.7 226.8,255.8 227.4,255.9 228.0,256.0 228.6,256.1 229.3,256.2 229.9,256.3 230.5,256.4 231.1,256.5 231.8,256.6 232.4,256.7 233.0,256.8 233.6,256.9 234.2,257.0 234.9,257.1 235.5,257.2 236.1,257.3 236.8,257.4 237.4,257.5 238.0,257.6 238.6,257.7 239.2,257.8 239.9,257.9 240.5,258.0 241.1,258.1 241.8,258.2 242.4,258.3 243.0,258.4 243.6,258.5 244.2,258.6 244.9,258.7 245.5,258.8 246.1,258.9 246.8,259.0 247.4,259.1 248.0,259.2 248.6,259.3 249.2,259.4 249.9,259.5 250.5,259.6 251.1,259.7 251.8,259.8 252.4,259.9 253.0,260.0 253.6,260.1 254.3,260.2 254.9,260.3 255.5,260.4 256.1,260.5 256.8,260.6 257.4,260.7 258.0,260.8 258.6,260.9 259.2,261.0 259.9,261.1 260.5,261.2 261.1,261.3 261.8,261.4 262.4,261.5 263.0,261.6 263.6,261.7 264.2,261.8 264.9,261.9 265.5,262.0 266.1,262.1 266.8,262.2 267.4,262.3 268.0,262.4 268.6,262.5 269.2,262.6 269.9,262.7 270.5,262.8 271.1,262.9 271.8,263.0 272.4,263.1 273.0,263.2 273.6,263.3 274.2,263.4 274.9,263.5 275.5,263.6 276.1,263.7 276.8,263.8 277.4,263.9 278.0,264.0 278.6,264.1 279.2,264.2 279.9,264.3 280.5,264.4 281.1,264.5 281.8,264.6 282.4,264.7 283.0,264.8 283.6,264.9 284.2,265.0 284.9,265.1 285.5,265.2 286.1,265.3 286.8,265.4 287.4,265.5 288.0,265.6 288.6,265.7 289.2,265.8 289.9,265.9 290.5,266.0 291.1,266.1 291.8,266.2 292.4,266.3 293.0,266.4 293.6,266.5 294.2,266.6 294.9,266.7 295.5,266.8 296.1,266.9 296.8,267.0 297.4,267.1 298.0,267.2 298.6,267.3 299.2,267.4 299.9,267.5 300.5,267.6 301.1,267.7 301.8,267.8 302.4,267.9 303.0,268.0 303.6,268.1 304.2,268.2 304.9,268.3 305.5,268.4 306.1,268.5 306.8,268.6 307.4,268.7 308.0,268.8" fill="none" stroke="#16a34a" stroke-width="2.2" stroke-linejoin="round"/>
<polyline points="58.0,72.1 58.8,73.2 59.5,74.2 60.2,75.2 61.0,76.2 61.8,77.2 62.5,78.2 63.2,79.2 64.0,80.2 64.8,81.2 65.5,82.2 66.2,83.2 67.0,84.2 67.8,85.2 68.5,86.2 69.2,87.2 70.0,88.2 70.8,89.1 71.5,90.1 72.2,91.1 73.0,92.1 73.8,93.0 74.5,94.0 75.2,95.0 76.0,95.9 76.8,96.9 77.5,97.8 78.2,98.8 79.0,99.7 79.8,100.7 80.5,101.6 81.2,102.6 82.0,103.5 82.8,104.5 83.5,105.4 84.2,106.3 85.0,107.3 85.8,108.2 86.5,109.1 87.2,110.0 88.0,110.9 88.8,111.9 89.5,112.8 90.2,113.7 91.0,114.6 91.8,115.5 92.5,116.4 93.2,117.3 94.0,118.2 94.8,119.1 95.5,120.0 96.2,120.9 97.0,121.8 97.8,122.7 98.5,123.6 99.2,124.4 100.0,125.3 100.8,126.2 101.5,127.1 102.2,127.9 103.0,128.8 103.8,129.7 104.5,130.5 105.2,131.4 106.0,132.2 106.8,133.1 107.5,134.0 108.2,134.8 109.0,135.6 109.8,136.5 110.5,137.3 111.2,138.2 112.0,139.0 112.8,139.8 113.5,140.7 114.2,141.5 115.0,142.3 115.8,143.2 116.5,144.0 117.2,144.8 118.0,145.6 118.8,146.4 119.5,147.2 120.2,148.0 121.0,148.8 121.8,149.7 122.5,150.5 123.2,151.2 124.0,152.0 124.8,152.8 125.5,153.6 126.2,154.4 127.0,155.2 127.8,156.0 128.5,156.8 129.2,157.5 130.0,158.3 130.8,159.1 131.5,159.9 132.2,160.6 133.0,161.4 133.8,162.1 134.5,162.9 135.2,163.7 136.0,164.4 136.8,165.2 137.5,165.9 138.2,166.7 139.0,167.4 139.8,168.1 140.5,168.9 141.2,169.6 142.0,170.3 142.8,171.1 143.5,171.8 144.2,172.5 145.0,173.3 145.8,174.0 146.5,174.7 147.2,175.4 148.0,176.1 148.8,176.8 149.5,177.5 150.2,178.2 151.0,178.9 151.8,179.6 152.5,180.3 153.2,181.0 154.0,181.7 154.8,182.4 155.5,183.1 156.2,183.8 157.0,184.5 157.8,185.1 158.5,185.8 159.2,186.5 160.0,187.2 160.8,187.8 161.5,188.5 162.2,189.1 163.0,189.8 163.8,190.5 164.5,191.1 165.2,191.8 166.0,192.4 166.8,193.1 167.5,193.7 168.2,194.4 169.0,195.0 169.8,195.6 170.5,196.3 171.2,196.9 172.0,197.5 172.8,198.2 173.5,198.8 174.2,199.4 175.0,200.0 175.8,200.6 176.5,201.2 177.2,201.9 178.0,202.5 178.8,203.1 179.5,203.7 180.2,204.3 181.0,204.9 181.8,205.5 182.5,206.1 183.2,206.6 184.0,207.2 184.8,207.8 185.5,208.4 186.2,209.0 187.0,209.6 187.8,210.1 188.5,210.7 189.2,211.3 190.0,211.8 190.8,212.4 191.5,213.0 192.2,213.5 193.0,214.1 193.8,214.6 194.5,215.2 195.2,215.7 196.0,216.3 196.8,216.8 197.5,217.4 198.2,217.9 199.0,218.4 199.7,219.0 200.5,219.5 201.2,220.0 202.0,220.5 202.8,221.1 203.5,221.6 204.3,222.1 205.0,222.6 205.8,223.1 206.5,223.6 207.3,224.1 208.0,224.7 208.8,225.2 209.5,225.7 210.2,226.1 211.0,226.6 211.8,227.1 212.5,227.6 213.2,228.1 214.0,228.6 214.8,229.1 215.5,229.5 216.2,230.0 217.0,230.5 217.8,231.0 218.5,231.4 219.2,231.9 220.0,232.4 220.7,232.8 221.5,233.3 222.2,233.7 223.0,234.2 223.8,234.6 224.5,235.1 225.2,235.5 226.0,236.0 226.8,236.4 227.5,236.8 228.3,237.3 229.0,237.7 229.8,238.1 230.5,238.6 231.2,239.0 232.0,239.4 232.8,239.8 233.5,240.2 234.2,240.7 235.0,241.1 235.8,241.5 236.5,241.9 237.2,242.3 238.0,242.7 238.8,243.1 239.5,243.5 240.2,243.9 241.0,244.3 241.8,244.6 242.5,245.0 243.2,245.4 244.0,245.8 244.8,246.2 245.5,246.5 246.2,246.9 247.0,247.3 247.8,247.6 248.5,248.0 249.2,248.4 250.0,248.7 250.8,249.1 251.5,249.4 252.2,249.8 253.0,250.1 253.8,250.5 254.5,250.8 255.2,251.2 256.0,251.5 256.8,251.8 257.5,252.2 258.2,252.5 259.0,252.8 259.8,253.2 260.5,253.5 261.2,253.8 262.0,254.1 262.8,254.4 263.5,254.7 264.2,255.1 265.0,255.4 265.8,255.7 266.5,256.0 267.2,256.3 268.0,256.6 268.8,256.9 269.5,257.1 270.2,257.4 271.0,257.7 271.8,258.0 272.5,258.3 273.2,258.6 274.0,258.8 274.8,259.1 275.5,259.4 276.2,259.6 277.0,259.9 277.8,260.2 278.5,260.4 279.2,260.7 280.0,260.9 280.8,261.2 281.5,261.4 282.2,261.7 283.0,261.9 283.8,262.2 284.5,262.4 285.2,262.7 286.0,262.9 286.8,263.1 287.5,263.3 288.2,263.6 289.0,263.8 289.8,264.0 290.5,264.2 291.2,264.5 292.0,264.7 292.8,264.9 293.5,265.1 294.2,265.3 295.0,265.5 295.8,265.7 296.5,265.9 297.2,266.1 298.0,266.3 298.8,266.5 299.5,266.7 300.2,266.8 301.0,267.0 301.8,267.2 302.5,267.4 303.2,267.6 304.0,267.7 304.8,267.9 305.5,268.1 306.2,268.2 307.0,268.4 307.8,268.5 308.5,268.7 309.2,268.9 310.0,269.0 310.8,269.1 311.5,269.3 312.2,269.4 313.0,269.6 313.8,269.7 314.5,269.9 315.2,270.0 316.0,270.1 316.8,270.2 317.5,270.4 318.3,270.5 319.0,270.6 319.8,270.7 320.5,270.8 321.2,270.9 322.0,271.1 322.8,271.2 323.5,271.3 324.2,271.4 325.0,271.5 325.8,271.6 326.5,271.7 327.2,271.8 328.0,271.8 328.8,271.9 329.5,272.0 330.2,272.1 331.0,272.2 331.8,272.2 332.5,272.3 333.3,272.4 334.0,272.5 334.8,272.5 335.5,272.6 336.3,272.6 337.0,272.7 337.8,272.8 338.5,272.8 339.3,272.9 340.0,272.9 340.8,272.9 341.5,273.0 342.2,273.0 343.0,273.1 343.8,273.1 344.5,273.1 345.2,273.2 346.0,273.2 346.8,273.2 347.5,273.2 348.2,273.2 349.0,273.3 349.8,273.3 350.5,273.3 351.2,273.3 352.0,273.3 352.8,273.3 353.5,273.3 354.2,273.3 355.0,273.3 355.8,273.3 356.5,273.3 357.2,273.3 358.0,273.2" fill="none" stroke="#2563eb" stroke-width="2.2" stroke-linejoin="round"/>
<circle cx="58.0" cy="228.8" r="3.2" fill="#16a34a"/>
<circle cx="308.0" cy="268.8" r="3.2" fill="#16a34a"/>
<polyline points="183.0,63.2 208.0,63.2" fill="none" stroke="#2563eb" stroke-width="2.2" stroke-linejoin="round"/>
<text x="216.0" y="63.2" font-size="13" font-family="Georgia, 'Times New Roman', serif" fill="#2563eb" text-anchor="start" dominant-baseline="middle" font-style="italic">E(5/8, B)</text>
<polyline points="183.0,87.7 208.0,87.7" fill="none" stroke="#ea580c" stroke-width="2.2" stroke-linejoin="round"/>
<text x="216.0" y="87.7" font-size="13" font-family="Georgia, 'Times New Roman', serif" fill="#ea580c" text-anchor="start" dominant-baseline="middle" font-style="italic">β(5/8)(B − 5/16)²</text>
<polyline points="183.0,112.1 208.0,112.1" fill="none" stroke="#16a34a" stroke-width="2.2" stroke-linejoin="round"/>
<text x="216.0" y="112.1" font-size="13" font-family="Georgia, 'Times New Roman', serif" fill="#16a34a" text-anchor="start" dominant-baseline="middle" font-style="italic">L(B)</text>
<text x="208.0" y="16.0" font-size="14" font-family="Georgia, 'Times New Roman', serif" fill="#1f2937" text-anchor="middle" dominant-baseline="middle">(a) the radial form at <tspan font-style="italic">z</tspan> = 5/8</text>
<line x1="442.0" y1="276.0" x2="742.0" y2="276.0" stroke="#1f2937" stroke-width="1"/>
<line x1="442.0" y1="276.0" x2="442.0" y2="46.0" stroke="#1f2937" stroke-width="1"/>
<line x1="442.0" y1="276.0" x2="442.0" y2="281.0" stroke="#1f2937" stroke-width="1"/>
<text x="442.0" y="292.0" font-size="13" font-family="Georgia, 'Times New Roman', serif" fill="#1f2937" text-anchor="middle" dominant-baseline="middle">0</text>
<line x1="538.0" y1="276.0" x2="538.0" y2="281.0" stroke="#1f2937" stroke-width="1"/>
<text x="538.0" y="292.0" font-size="13" font-family="Georgia, 'Times New Roman', serif" fill="#1f2937" text-anchor="middle" dominant-baseline="middle">0.2</text>
<line x1="634.0" y1="276.0" x2="634.0" y2="281.0" stroke="#1f2937" stroke-width="1"/>
<text x="634.0" y="292.0" font-size="13" font-family="Georgia, 'Times New Roman', serif" fill="#1f2937" text-anchor="middle" dominant-baseline="middle">0.4</text>
<line x1="742.0" y1="276.0" x2="742.0" y2="281.0" stroke="#1f2937" stroke-width="1"/>
<text x="742.0" y="292.0" font-size="13" font-family="Georgia, 'Times New Roman', serif" fill="#1f2937" text-anchor="middle" dominant-baseline="middle">5/8</text>
<line x1="442.0" y1="276.0" x2="437.0" y2="276.0" stroke="#1f2937" stroke-width="1"/>
<text x="434.0" y="276.0" font-size="13" font-family="Georgia, 'Times New Roman', serif" fill="#1f2937" text-anchor="end" dominant-baseline="middle">0</text>
<line x1="442.0" y1="161.0" x2="437.0" y2="161.0" stroke="#1f2937" stroke-width="1"/>
<text x="434.0" y="161.0" font-size="13" font-family="Georgia, 'Times New Roman', serif" fill="#1f2937" text-anchor="end" dominant-baseline="middle">0.01</text>
<line x1="442.0" y1="46.0" x2="437.0" y2="46.0" stroke="#1f2937" stroke-width="1"/>
<text x="434.0" y="46.0" font-size="13" font-family="Georgia, 'Times New Roman', serif" fill="#1f2937" text-anchor="end" dominant-baseline="middle">0.02</text>
<text x="746.0" y="306.0" font-size="15" font-family="Georgia, 'Times New Roman', serif" fill="#1f2937" text-anchor="end" dominant-baseline="middle" font-style="italic">z</text>
<polyline points="442.0,276.0 742.0,247.4" fill="none" stroke="#2563eb" stroke-width="1.2" stroke-linejoin="round" stroke-dasharray="5 4"/>
<polyline points="442.0,276.0 442.8,274.8 443.5,273.6 444.2,272.4 445.0,271.2 445.8,270.0 446.5,268.8 447.2,267.6 448.0,266.4 448.8,265.2 449.5,264.1 450.2,262.9 451.0,261.8 451.8,260.6 452.5,259.5 453.2,258.3 454.0,257.2 454.8,256.1 455.5,255.0 456.2,253.8 457.0,252.7 457.8,251.6 458.5,250.5 459.2,249.4 460.0,248.3 460.8,247.3 461.5,246.2 462.2,245.1 463.0,244.1 463.8,243.0 464.5,241.9 465.2,240.9 466.0,239.8 466.8,238.8 467.5,237.8 468.2,236.7 469.0,235.7 469.8,234.7 470.5,233.7 471.2,232.7 472.0,231.7 472.8,230.7 473.5,229.7 474.2,228.7 475.0,227.7 475.8,226.8 476.5,225.8 477.2,224.8 478.0,223.9 478.8,222.9 479.5,222.0 480.2,221.0 481.0,220.1 481.8,219.2 482.5,218.2 483.2,217.3 484.0,216.4 484.8,215.5 485.5,214.6 486.2,213.7 487.0,212.8 487.8,211.9 488.5,211.0 489.2,210.1 490.0,209.3 490.8,208.4 491.5,207.5 492.2,206.7 493.0,205.8 493.8,205.0 494.5,204.1 495.2,203.3 496.0,202.4 496.8,201.6 497.5,200.8 498.2,200.0 499.0,199.1 499.8,198.3 500.5,197.5 501.2,196.7 502.0,195.9 502.8,195.1 503.5,194.3 504.2,193.6 505.0,192.8 505.8,192.0 506.5,191.2 507.2,190.5 508.0,189.7 508.8,189.0 509.5,188.2 510.2,187.5 511.0,186.7 511.8,186.0 512.5,185.3 513.2,184.5 514.0,183.8 514.8,183.1 515.5,182.4 516.2,181.7 517.0,181.0 517.8,180.3 518.5,179.6 519.2,178.9 520.0,178.2 520.8,177.5 521.5,176.8 522.2,176.2 523.0,175.5 523.8,174.8 524.5,174.2 525.2,173.5 526.0,172.8 526.8,172.2 527.5,171.6 528.2,170.9 529.0,170.3 529.8,169.7 530.5,169.0 531.2,168.4 532.0,167.8 532.8,167.2 533.5,166.6 534.2,166.0 535.0,165.4 535.8,164.8 536.5,164.2 537.2,163.6 538.0,163.0 538.8,162.4 539.5,161.8 540.2,161.3 541.0,160.7 541.8,160.1 542.5,159.6 543.2,159.0 544.0,158.5 544.8,157.9 545.5,157.4 546.2,156.8 547.0,156.3 547.8,155.8 548.5,155.2 549.2,154.7 550.0,154.2 550.8,153.7 551.5,153.1 552.2,152.6 553.0,152.1 553.8,151.6 554.5,151.1 555.2,150.6 556.0,150.1 556.8,149.6 557.5,149.2 558.2,148.7 559.0,148.2 559.8,147.7 560.5,147.3 561.2,146.8 562.0,146.3 562.8,145.9 563.5,145.4 564.2,144.9 565.0,144.5 565.8,144.1 566.5,143.6 567.2,143.2 568.0,142.7 568.8,142.3 569.5,141.9 570.2,141.4 571.0,141.0 571.8,140.6 572.5,140.2 573.2,139.8 574.0,139.4 574.8,138.9 575.5,138.5 576.2,138.1 577.0,137.7 577.8,137.3 578.5,137.0 579.2,136.6 580.0,136.2 580.8,135.8 581.5,135.4 582.2,135.0 583.0,134.7 583.8,134.3 584.5,133.9 585.2,133.6 586.0,133.2 586.8,132.8 587.5,132.5 588.2,132.1 589.0,131.8 589.8,131.4 590.5,131.1 591.2,130.7 592.0,130.4 592.8,130.1 593.5,129.7 594.2,129.4 595.0,129.1 595.8,128.8 596.5,128.4 597.2,128.1 598.0,127.8 598.8,127.5 599.5,127.2 600.2,126.9 601.0,126.5 601.8,126.2 602.5,125.9 603.2,125.6 604.0,125.3 604.8,125.0 605.5,124.7 606.2,124.5 607.0,124.2 607.8,123.9 608.5,123.6 609.2,123.3 610.0,123.0 610.8,122.8 611.5,122.5 612.2,122.2 613.0,121.9 613.8,121.7 614.5,121.4 615.2,121.1 616.0,120.9 616.8,120.6 617.5,120.3 618.2,120.1 619.0,119.8 619.8,119.6 620.5,119.3 621.2,119.1 622.0,118.8 622.8,118.6 623.5,118.4 624.2,118.1 625.0,117.9 625.8,117.6 626.5,117.4 627.2,117.2 628.0,116.9 628.8,116.7 629.5,116.5 630.2,116.2 631.0,116.0 631.8,115.8 632.5,115.6 633.2,115.3 634.0,115.1 634.8,114.9 635.5,114.7 636.2,114.5 637.0,114.3 637.8,114.1 638.5,113.8 639.2,113.6 640.0,113.4 640.8,113.2 641.5,113.0 642.2,112.8 643.0,112.6 643.8,112.4 644.5,112.2 645.2,112.0 646.0,111.8 646.8,111.6 647.5,111.4 648.2,111.2 649.0,111.0 649.8,110.8 650.5,110.6 651.2,110.5 652.0,110.3 652.8,110.1 653.5,109.9 654.2,109.7 655.0,109.5 655.8,109.3 656.5,109.1 657.2,109.0 658.0,108.8 658.8,108.6 659.5,108.4 660.2,108.2 661.0,108.1 661.8,107.9 662.5,107.7 663.2,107.5 664.0,107.3 664.8,107.2 665.5,107.0 666.2,106.8 667.0,106.6 667.8,106.5 668.5,106.3 669.2,106.1 670.0,105.9 670.8,105.8 671.5,105.6 672.2,105.4 673.0,105.3 673.8,105.1 674.5,104.9 675.2,104.7 676.0,104.6 676.8,104.4 677.5,104.2 678.2,104.1 679.0,103.9 679.8,103.7 680.5,103.5 681.2,103.4 682.0,103.2 682.8,103.0 683.5,102.9 684.2,102.7 685.0,102.5 685.8,102.3 686.5,102.2 687.2,102.0 688.0,101.8 688.8,101.7 689.5,101.5 690.2,101.3 691.0,101.1 691.8,101.0 692.5,100.8 693.2,100.6 694.0,100.4 694.8,100.3 695.5,100.1 696.2,99.9 697.0,99.7 697.8,99.6 698.5,99.4 699.2,99.2 700.0,99.0 700.8,98.8 701.5,98.7 702.2,98.5 703.0,98.3 703.8,98.1 704.5,97.9 705.2,97.7 706.0,97.6 706.8,97.4 707.5,97.2 708.2,97.0 709.0,96.8 709.8,96.6 710.5,96.4 711.2,96.2 712.0,96.0 712.8,95.8 713.5,95.6 714.2,95.4 715.0,95.2 715.8,95.0 716.5,94.8 717.2,94.6 718.0,94.4 718.8,94.2 719.5,94.0 720.2,93.8 721.0,93.6 721.8,93.4 722.5,93.2 723.2,93.0 724.0,92.8 724.8,92.5 725.5,92.3 726.2,92.1 727.0,91.9 727.8,91.6 728.5,91.4 729.2,91.2 730.0,91.0 730.8,90.7 731.5,90.5 732.2,90.3 733.0,90.0 733.8,89.8 734.5,89.5 735.2,89.3 736.0,89.1 736.8,88.8 737.5,88.6 738.2,88.3 739.0,88.1 739.8,87.8 740.5,87.5 741.2,87.3 742.0,87.0" fill="none" stroke="#ea580c" stroke-width="2.2" stroke-linejoin="round"/>
<polyline points="442.0,276.0 442.8,274.4 443.5,272.9 444.2,271.3 445.0,269.8 445.8,268.3 446.5,266.8 447.2,265.3 448.0,263.8 448.8,262.3 449.5,260.8 450.2,259.3 451.0,257.9 451.8,256.4 452.5,255.0 453.2,253.5 454.0,252.1 454.8,250.7 455.5,249.3 456.2,247.9 457.0,246.5 457.8,245.1 458.5,243.7 459.2,242.4 460.0,241.0 460.8,239.7 461.5,238.3 462.2,237.0 463.0,235.7 463.8,234.4 464.5,233.1 465.2,231.8 466.0,230.5 466.8,229.2 467.5,228.0 468.2,226.7 469.0,225.4 469.8,224.2 470.5,223.0 471.2,221.7 472.0,220.5 472.8,219.3 473.5,218.1 474.2,216.9 475.0,215.8 475.8,214.6 476.5,213.4 477.2,212.3 478.0,211.1 478.8,210.0 479.5,208.9 480.2,207.7 481.0,206.6 481.8,205.5 482.5,204.4 483.2,203.3 484.0,202.3 484.8,201.2 485.5,200.1 486.2,199.1 487.0,198.0 487.8,197.0 488.5,196.0 489.2,194.9 490.0,193.9 490.8,192.9 491.5,191.9 492.2,190.9 493.0,190.0 493.8,189.0 494.5,188.0 495.2,187.1 496.0,186.1 496.8,185.2 497.5,184.3 498.2,183.4 499.0,182.5 499.8,181.6 500.5,180.7 501.2,179.8 502.0,178.9 502.8,178.0 503.5,177.2 504.2,176.3 505.0,175.5 505.8,174.6 506.5,173.8 507.2,173.0 508.0,172.2 508.8,171.4 509.5,170.6 510.2,169.8 511.0,169.0 511.8,168.2 512.5,167.5 513.2,166.7 514.0,166.0 514.8,165.2 515.5,164.5 516.2,163.8 517.0,163.1 517.8,162.4 518.5,161.7 519.2,161.0 520.0,160.3 520.8,159.6 521.5,159.0 522.2,158.3 523.0,157.7 523.8,157.0 524.5,156.4 525.2,155.8 526.0,155.1 526.8,154.5 527.5,153.9 528.2,153.3 529.0,152.7 529.8,152.2 530.5,151.6 531.2,151.0 532.0,150.5 532.8,149.9 533.5,149.4 534.2,148.9 535.0,148.3 535.8,147.8 536.5,147.3 537.2,146.8 538.0,146.3 538.8,145.8 539.5,145.4 540.2,144.9 541.0,144.4 541.8,144.0 542.5,143.5 543.2,143.1 544.0,142.7 544.8,142.2 545.5,141.8 546.2,141.4 547.0,141.0 547.8,140.6 548.5,140.2 549.2,139.8 550.0,139.5 550.8,139.1 551.5,138.8 552.2,138.4 553.0,138.1 553.8,137.7 554.5,137.4 555.2,137.1 556.0,136.8 556.8,136.5 557.5,136.2 558.2,135.9 559.0,135.6 559.8,135.3 560.5,135.1 561.2,134.8 562.0,134.6 562.8,134.3 563.5,134.1 564.2,133.8 565.0,133.6 565.8,133.4 566.5,133.2 567.2,133.0 568.0,132.8 568.8,132.6 569.5,132.4 570.2,132.3 571.0,132.1 571.8,131.9 572.5,131.8 573.2,131.6 574.0,131.5 574.8,131.4 575.5,131.3 576.2,131.1 577.0,131.0 577.8,130.9 578.5,130.8 579.2,130.7 580.0,130.7 580.8,130.6 581.5,130.5 582.2,130.5 583.0,130.4 583.8,130.4 584.5,130.3 585.2,130.3 586.0,130.3 586.8,130.2 587.5,130.2 588.2,130.2 589.0,130.2 589.8,130.2 590.5,130.3 591.2,130.3 592.0,130.3 592.8,130.3 593.5,130.4 594.2,130.4 595.0,130.5 595.8,130.6 596.5,130.6 597.2,130.7 598.0,130.8 598.8,130.9 599.5,131.0 600.2,131.1 601.0,131.2 601.8,131.3 602.5,131.4 603.2,131.5 604.0,131.7 604.8,131.8 605.5,132.0 606.2,132.1 607.0,132.3 607.8,132.5 608.5,132.6 609.2,132.8 610.0,133.0 610.8,133.2 611.5,133.4 612.2,133.6 613.0,133.8 613.8,134.0 614.5,134.2 615.2,134.5 616.0,134.7 616.8,134.9 617.5,135.2 618.2,135.5 619.0,135.7 619.8,136.0 620.5,136.3 621.2,136.5 622.0,136.8 622.8,137.1 623.5,137.4 624.2,137.7 625.0,138.0 625.8,138.3 626.5,138.7 627.2,139.0 628.0,139.3 628.8,139.7 629.5,140.0 630.2,140.4 631.0,140.7 631.8,141.1 632.5,141.4 633.2,141.8 634.0,142.2 634.8,142.6 635.5,143.0 636.2,143.4 637.0,143.8 637.8,144.2 638.5,144.6 639.2,145.0 640.0,145.4 640.8,145.9 641.5,146.3 642.2,146.8 643.0,147.2 643.8,147.7 644.5,148.1 645.2,148.6 646.0,149.1 646.8,149.5 647.5,150.0 648.2,150.5 649.0,151.0 649.8,151.5 650.5,152.0 651.2,152.5 652.0,153.0 652.8,153.5 653.5,154.1 654.2,154.6 655.0,155.1 655.8,155.7 656.5,156.2 657.2,156.8 658.0,157.3 658.8,157.9 659.5,158.5 660.2,159.0 661.0,159.6 661.8,160.2 662.5,160.8 663.2,161.4 664.0,162.0 664.8,162.6 665.5,163.2 666.2,163.8 667.0,164.4 667.8,165.0 668.5,165.6 669.2,166.3 670.0,166.9 670.8,167.6 671.5,168.2 672.2,168.9 673.0,169.5 673.8,170.2 674.5,170.8 675.2,171.5 676.0,172.2 676.8,172.9 677.5,173.5 678.2,174.2 679.0,174.9 679.8,175.6 680.5,176.3 681.2,177.0 682.0,177.8 682.8,178.5 683.5,179.2 684.2,179.9 685.0,180.6 685.8,181.4 686.5,182.1 687.2,182.9 688.0,183.6 688.8,184.4 689.5,185.1 690.2,185.9 691.0,186.6 691.8,187.4 692.5,188.2 693.2,189.0 694.0,189.7 694.8,190.5 695.5,191.3 696.2,192.1 697.0,192.9 697.8,193.7 698.5,194.5 699.2,195.3 700.0,196.1 700.8,197.0 701.5,197.8 702.2,198.6 703.0,199.4 703.8,200.3 704.5,201.1 705.2,201.9 706.0,202.8 706.8,203.6 707.5,204.5 708.2,205.3 709.0,206.2 709.8,207.1 710.5,207.9 711.2,208.8 712.0,209.7 712.8,210.6 713.5,211.4 714.2,212.3 715.0,213.2 715.8,214.1 716.5,215.0 717.2,215.9 718.0,216.8 718.8,217.7 719.5,218.6 720.2,219.5 721.0,220.5 721.8,221.4 722.5,222.3 723.2,223.2 724.0,224.2 724.8,225.1 725.5,226.0 726.2,227.0 727.0,227.9 727.8,228.9 728.5,229.8 729.2,230.8 730.0,231.7 730.8,232.7 731.5,233.6 732.2,234.6 733.0,235.6 733.8,236.5 734.5,237.5 735.2,238.5 736.0,239.5 736.8,240.4 737.5,241.4 738.2,242.4 739.0,243.4 739.8,244.4 740.5,245.4 741.2,246.4 742.0,247.4" fill="none" stroke="#2563eb" stroke-width="2.2" stroke-linejoin="round"/>
<circle cx="742.0" cy="247.4" r="3.2" fill="#2563eb"/>
<text x="682.0" y="84.8" font-size="14" font-family="Georgia, 'Times New Roman', serif" fill="#ea580c" text-anchor="end" dominant-baseline="middle" font-style="italic">L(0)</text>
<text x="547.6" y="122.3" font-size="14" font-family="Georgia, 'Times New Roman', serif" fill="#2563eb" text-anchor="middle" dominant-baseline="middle" font-style="italic">F = L(3/10)</text>
<text x="592.0" y="16.0" font-size="14" font-family="Georgia, 'Times New Roman', serif" fill="#1f2937" text-anchor="middle" dominant-baseline="middle">(b) the two heights</text>
</svg>
