<svg xmlns="http://www.w3.org/2000/svg" width="624" height="366" viewBox="0 0 624 366" role="img" aria-label="Left: the plane of forces. For turns z from 0 to pi/6 the force (cos z, 1 - sin z) lies in the cone spanned by the normals (X0, Y0) of the circle and (9, 11) of the tie line at the transition state. Right: the level lines of the form through the transition state leave the states with axial label on their lower side">
<title>Left: the plane of forces. For turns z from 0 to pi/6 the force (cos z, 1 - sin z) lies in the cone spanned by the normals (X0, Y0) of the circle and (9, 11) of the tie line at the transition state. Right: the level lines of the form through the transition state leave the states with axial label on their lower side</title>
<defs><marker id="arrow" viewBox="0 0 10 10" refX="9" refY="5" markerUnits="userSpaceOnUse" markerWidth="11" markerHeight="11" orient="auto-start-reverse"><path d="M 0 0 L 10 5 L 0 10 z" fill="#1f2937"/></marker></defs>
<rect width="100%" height="100%" fill="#ffffff"/>
<line x1="63.0" y1="303.0" x2="328.0" y2="303.0" stroke="#1f2937" stroke-width="1" marker-end="url(#arrow)"/>
<line x1="63.0" y1="303.0" x2="63.0" y2="38.0" stroke="#1f2937" stroke-width="1" marker-end="url(#arrow)"/>
<line x1="178.2" y1="306.0" x2="178.2" y2="300.0" stroke="#1f2937" stroke-width="1"/>
<text x="178.2" y="316.0" font-size="11" font-family="Georgia, 'Times New Roman', serif" fill="#1f2937" text-anchor="middle" dominant-baseline="middle">0.5</text>
<line x1="293.4" y1="306.0" x2="293.4" y2="300.0" stroke="#1f2937" stroke-width="1"/>
<text x="293.4" y="316.0" font-size="11" font-family="Georgia, 'Times New Roman', serif" fill="#1f2937" text-anchor="middle" dominant-baseline="middle">1</text>
<line x1="60.0" y1="187.8" x2="66.0" y2="187.8" stroke="#1f2937" stroke-width="1"/>
<text x="58.0" y="187.8" font-size="11" font-family="Georgia, 'Times New Roman', serif" fill="#1f2937" text-anchor="end" dominant-baseline="middle">0.5</text>
<line x1="60.0" y1="72.6" x2="66.0" y2="72.6" stroke="#1f2937" stroke-width="1"/>
<text x="58.0" y="72.6" font-size="11" font-family="Georgia, 'Times New Roman', serif" fill="#1f2937" text-anchor="end" dominant-baseline="middle">1</text>
<polygon points="63.0,303.0 328.0,173.5 328.0,38.0 279.8,38.0" fill="#ffedd5" stroke="none" stroke-width="1.5" fill-opacity="1"/>
<line x1="63.0" y1="303.0" x2="328.0" y2="173.5" stroke="#ea580c" stroke-width="1.3"/>
<line x1="63.0" y1="303.0" x2="279.8" y2="38.0" stroke="#ea580c" stroke-width="1.3"/>
<text x="328.0" y="189.5" font-size="12" font-family="Georgia, 'Times New Roman', serif" fill="#ea580c" text-anchor="end" dominant-baseline="middle">(X<tspan dy="3.6" font-size="8.2">0</tspan><tspan dy="-3.6">, </tspan>Y<tspan dy="3.6" font-size="8.2">0</tspan><tspan dy="-3.6">)</tspan></text>
<text x="284.8" y="46.0" font-size="12" font-family="Georgia, 'Times New Roman', serif" fill="#ea580c" text-anchor="start" dominant-baseline="middle">(9, 11)</text>
<polyline points="262.6,187.8 261.0,190.4 259.5,193.0 257.9,195.5 256.3,198.1 254.6,200.6 252.9,203.1 251.2,205.6 249.4,208.0 247.6,210.4 245.8,212.8 244.0,215.2 242.1,217.6 240.2,219.9 238.2,222.2 236.3,224.5 234.2,226.8 232.2,229.0 230.2,231.2 228.1,233.4 225.9,235.5 223.8,237.6 221.6,239.7 219.4,241.8 217.2,243.8 214.9,245.8 212.7,247.8 210.3,249.7 208.0,251.6 205.7,253.5 203.3,255.4 200.9,257.2 198.4,259.0 196.0,260.7 193.5,262.5 191.0,264.2 188.5,265.8 186.0,267.5 183.4,269.0 180.8,270.6 178.2,272.1 175.6,273.6 173.0,275.1 170.3,276.5 167.6,277.9 164.9,279.2 162.2,280.6 159.5,281.8 156.7,283.1 154.0,284.3 151.2,285.5 148.4,286.6 145.6,287.7 142.8,288.8 139.9,289.8 137.1,290.8 134.2,291.7 131.3,292.6 128.4,293.5 125.5,294.3 122.6,295.1 119.7,295.9 116.8,296.6 113.9,297.3 110.9,298.0 108.0,298.6 105.0,299.1 102.0,299.7 99.0,300.2 96.1,300.6 93.1,301.0 90.1,301.4 87.1,301.7 84.1,302.0 81.1,302.3 78.1,302.5 75.1,302.7 72.0,302.8 69.0,302.9 66.0,303.0 63.0,303.0" fill="none" stroke="#1f2937" stroke-width="1.4" stroke-opacity="1" stroke-linejoin="round" stroke-dasharray="2 3"/>
<polyline points="293.4,72.6 293.4,74.6 293.4,76.6 293.4,78.6 293.3,80.6 293.2,82.6 293.1,84.6 293.0,86.6 292.9,88.6 292.7,90.6 292.6,92.6 292.4,94.7 292.2,96.7 292.0,98.7 291.7,100.6 291.5,102.6 291.2,104.6 290.9,106.6 290.6,108.6 290.3,110.6 289.9,112.6 289.6,114.6 289.2,116.5 288.8,118.5 288.4,120.5 288.0,122.4 287.5,124.4 287.1,126.4 286.6,128.3 286.1,130.3 285.6,132.2 285.1,134.1 284.5,136.1 283.9,138.0 283.4,139.9 282.8,141.9 282.2,143.8 281.5,145.7 280.9,147.6 280.2,149.5 279.5,151.4 278.8,153.3 278.1,155.1 277.4,157.0 276.7,158.9 275.9,160.7 275.1,162.6 274.3,164.5 273.5,166.3 272.7,168.1 271.8,170.0 271.0,171.8 270.1,173.6 269.2,175.4 268.3,177.2 267.4,179.0 266.5,180.7 265.5,182.5 264.5,184.3 263.6,186.0 262.6,187.8" fill="none" stroke="#1f2937" stroke-width="2.4" stroke-opacity="1" stroke-linejoin="round"/>
<circle cx="293.4" cy="72.6" r="3.4" fill="#1f2937"/>
<circle cx="262.6" cy="187.8" r="3.4" fill="#1f2937"/>
<circle cx="244.8" cy="214.2" r="2.6" fill="#9ca3af"/>
<text x="300.4" y="70.6" font-size="12" font-family="Georgia, 'Times New Roman', serif" fill="#1f2937" text-anchor="start" dominant-baseline="middle">z = 0</text>
<text x="255.6" y="185.8" font-size="12" font-family="Georgia, 'Times New Roman', serif" fill="#1f2937" text-anchor="end" dominant-baseline="middle">z = π/6</text>
<text x="250.8" y="218.2" font-size="12" font-family="Georgia, 'Times New Roman', serif" fill="#9ca3af" text-anchor="start" dominant-baseline="middle">z ≈ 0.66</text>
<text x="269.0" y="118.7" font-size="12" font-family="Georgia, 'Times New Roman', serif" fill="#1f2937" text-anchor="end" dominant-baseline="middle">(cos z, 1 − sin z)</text>
<text x="242.7" y="54.1" font-size="12" font-family="Georgia, 'Times New Roman', serif" fill="#ea580c" text-anchor="middle" dominant-baseline="middle">cone</text>
<g transform="translate(370,32)">
<polygon points="205.4,261.2 204.4,258.5 203.2,255.1 201.9,251.7 200.6,248.3 199.3,244.9 198.0,241.5 196.7,238.1 195.3,234.8 194.0,231.4 192.7,228.0 191.3,224.6 189.9,221.3 188.5,217.9 187.1,214.5 185.7,211.2 184.3,207.8 182.9,204.5 181.5,201.1 180.0,197.8 178.6,194.5 177.1,191.1 175.6,187.8 174.1,184.5 172.6,181.2 171.1,177.9 169.6,174.6 168.1,171.3 166.5,168.0 165.0,164.7 163.4,161.4 161.9,158.1 160.3,154.8 158.7,151.6 158.7,151.5 18.0,36.4 18.0,261.2" fill="#dbeafe" stroke="none" stroke-width="1.5" fill-opacity="1"/>
<polygon points="158.7,151.5 157.1,148.3 155.5,145.0 153.9,141.8 152.2,138.5 150.6,135.3 148.9,132.1 147.3,128.8 145.6,125.6 143.9,122.4 142.2,119.1 140.5,115.9 138.8,112.7 137.1,109.5 135.3,106.3 133.6,103.1 131.8,99.9 130.1,96.8 128.3,93.6 126.5,90.4 124.7,87.3 122.9,84.1 121.1,81.0 119.3,77.8 117.4,74.7 115.6,71.5 113.8,68.4 111.9,65.3 110.0,62.2 108.1,59.0 106.2,55.9 104.3,52.8 102.4,49.7 100.5,46.7 98.6,43.6 96.6,40.5 94.7,37.4 92.7,34.4 90.7,31.3 88.8,28.3 86.8,25.2 84.8,22.2 82.8,19.2 82.0,18.0 18.0,18.0 18.0,36.4" fill="#dcfce7" stroke="none" stroke-width="1.5" fill-opacity="1"/>
<polyline points="205.4,261.2 205.0,260.0 204.5,258.8 204.1,257.6 203.6,256.3 203.2,255.1 202.7,253.9 202.2,252.7 201.8,251.5 201.3,250.3 200.9,249.0 200.4,247.8 199.9,246.6 199.5,245.4 199.0,244.2 198.5,243.0 198.1,241.7 197.6,240.5 197.1,239.3 196.7,238.1 196.2,236.9 195.7,235.7 195.2,234.4 194.7,233.2 194.3,232.0 193.8,230.8 193.3,229.6 192.8,228.4 192.3,227.2 191.8,225.9 191.3,224.7 190.8,223.5 190.3,222.3 189.8,221.1 189.3,219.9 188.8,218.6 188.3,217.4 187.8,216.2 187.3,215.0 186.8,213.8 186.3,212.6 185.8,211.3 185.3,210.1 184.8,208.9 184.3,207.7 183.8,206.5 183.2,205.3 182.7,204.0 182.2,202.8 181.7,201.6 181.2,200.4 180.6,199.2 180.1,198.0 179.6,196.8 179.0,195.5 178.5,194.3 178.0,193.1 177.4,191.9 176.9,190.7 176.4,189.5 175.8,188.2 175.3,187.0 174.7,185.8 174.2,184.6 173.6,183.4 173.1,182.2 172.5,180.9 172.0,179.7 171.4,178.5 170.9,177.3 170.3,176.1 169.7,174.9 169.2,173.6 168.6,172.4 168.1,171.2 167.5,170.0 166.9,168.8 166.4,167.6 165.8,166.4 165.2,165.1 164.6,163.9 164.1,162.7 163.5,161.5 162.9,160.3 162.3,159.1 161.7,157.8 161.1,156.6 160.6,155.4 160.0,154.2 159.4,153.0 158.8,151.8 158.2,150.5 157.6,149.3 157.0,148.1 156.4,146.9 155.8,145.7 155.2,144.5 154.6,143.2 154.0,142.0 153.4,140.8 152.8,139.6 152.1,138.4 151.5,137.2 150.9,136.0 150.3,134.7 149.7,133.5 149.1,132.3 148.4,131.1 147.8,129.9 147.2,128.7 146.6,127.4 145.9,126.2 145.3,125.0 144.7,123.8 144.0,122.6 143.4,121.4 142.7,120.1 142.1,118.9 141.5,117.7 140.8,116.5 140.2,115.3 139.5,114.1 138.9,112.8 138.2,111.6 137.6,110.4 136.9,109.2 136.2,108.0 135.6,106.8 134.9,105.6 134.3,104.3 133.6,103.1 132.9,101.9 132.2,100.7 131.6,99.5 130.9,98.3 130.2,97.0 129.6,95.8 128.9,94.6 128.2,93.4 127.5,92.2 126.8,91.0 126.1,89.7 125.4,88.5 124.8,87.3 124.1,86.1 123.4,84.9 122.7,83.7 122.0,82.4 121.3,81.2 120.6,80.0 119.9,78.8 119.2,77.6 118.4,76.4 117.7,75.2 117.0,73.9 116.3,72.7 115.6,71.5 114.9,70.3 114.2,69.1 113.4,67.9 112.7,66.6 112.0,65.4 111.2,64.2 110.5,63.0 109.8,61.8 109.0,60.6 108.3,59.3 107.6,58.1 106.8,56.9 106.1,55.7 105.3,54.5 104.6,53.3 103.8,52.0 103.1,50.8 102.3,49.6 101.6,48.4 100.8,47.2 100.1,46.0 99.3,44.8 98.5,43.5 97.8,42.3 97.0,41.1 96.2,39.9 95.5,38.7 94.7,37.5 93.9,36.2 93.1,35.0 92.4,33.8 91.6,32.6 90.8,31.4 90.0,30.2 89.2,28.9 88.4,27.7 87.6,26.5 86.8,25.3 86.0,24.1 85.2,22.9 84.4,21.6 83.6,20.4 82.8,19.2 82.0,18.0" fill="none" stroke="#1f2937" stroke-width="1.3" stroke-opacity="1" stroke-linejoin="round"/>
<line x1="18.0" y1="36.4" x2="235.6" y2="214.5" stroke="#1f2937" stroke-width="1.1" stroke-dasharray="4 3"/>
<line x1="25.1" y1="18.0" x2="235.6" y2="228.5" stroke="#ea580c" stroke-width="1.8"/>
<text x="25.1" y="9.0" font-size="12" font-family="Georgia, 'Times New Roman', serif" fill="#ea580c" text-anchor="end" dominant-baseline="middle">z = 0</text>
<line x1="81.6" y1="18.0" x2="222.0" y2="261.2" stroke="#ea580c" stroke-width="1.8"/>
<text x="81.6" y="9.0" font-size="12" font-family="Georgia, 'Times New Roman', serif" fill="#ea580c" text-anchor="start" dominant-baseline="middle">z = π/6</text>
<circle cx="158.7" cy="151.5" r="4" fill="#1f2937"/>
<text x="152.3" y="163.0" font-size="13" font-family="Georgia, 'Times New Roman', serif" fill="#1f2937" text-anchor="end" dominant-baseline="middle">(a<tspan dy="3.9" font-size="8.8">0</tspan><tspan dy="-3.9">, </tspan>u<tspan dy="3.9" font-size="8.8">0</tspan><tspan dy="-3.9">)</tspan></text>
<text x="101.2" y="210.0" font-size="14" font-family="Georgia, 'Times New Roman', serif" fill="#2563eb" text-anchor="middle" dominant-baseline="middle">axial</text>
<text x="64.1" y="42.3" font-size="14" font-family="Georgia, 'Times New Roman', serif" fill="#16a34a" text-anchor="middle" dominant-baseline="middle">side</text>
<text x="232.4" y="170.3" font-size="12" font-family="Georgia, 'Times New Roman', serif" fill="#1f2937" text-anchor="end" dominant-baseline="middle">tie line</text>
<text x="190.8" y="245.2" font-size="12" font-family="Georgia, 'Times New Roman', serif" fill="#1f2937" text-anchor="end" dominant-baseline="middle">circle</text>
<polygon points="18.0,261.2 235.6,261.2 235.6,18.0 18.0,18.0" fill="none" stroke="#9ca3af" stroke-width="1" fill-opacity="1"/>
</g>
</svg>
